<svg width="40" height="40" viewBox="0 0 40 40" fill="none" xmlns="http://www.w3.org/2000/svg">
<path d="M8.33333 9.16666C8.33333 7.61957 8.94791 6.13583 10.0419 5.04187C11.1358 3.94791 12.6196 3.33333 14.1667 3.33333H20V15H14.1667C12.6196 15 11.1358 14.3854 10.0419 13.2915C8.94791 12.1975 8.33333 10.7138 8.33333 9.16666Z" stroke="#C6C6C6" stroke-width="2" stroke-linecap="round" stroke-linejoin="round"/>
<path d="M20 3.33333H25.8333C26.5994 3.33333 27.3579 3.48421 28.0657 3.77736C28.7734 4.07052 29.4164 4.5002 29.9581 5.04187C30.4998 5.58355 30.9295 6.22661 31.2226 6.93434C31.5158 7.64207 31.6667 8.40062 31.6667 9.16666C31.6667 9.93271 31.5158 10.6912 31.2226 11.399C30.9295 12.1067 30.4998 12.7498 29.9581 13.2915C29.4164 13.8331 28.7734 14.2628 28.0657 14.556C27.3579 14.8491 26.5994 15 25.8333 15H20V3.33333Z" stroke="#C6C6C6" stroke-width="2" stroke-linecap="round" stroke-linejoin="round"/>
<path d="M20 20.8333C20 20.0673 20.1509 19.3087 20.444 18.601C20.7372 17.8933 21.1669 17.2502 21.7085 16.7085C22.2502 16.1669 22.8933 15.7372 23.601 15.444C24.3087 15.1509 25.0673 15 25.8333 15C26.5994 15 27.3579 15.1509 28.0657 15.444C28.7734 15.7372 29.4164 16.1669 29.9581 16.7085C30.4998 17.2502 30.9295 17.8933 31.2226 18.601C31.5158 19.3087 31.6667 20.0673 31.6667 20.8333C31.6667 21.5994 31.5158 22.3579 31.2226 23.0657C30.9295 23.7734 30.4998 24.4164 29.9581 24.9581C29.4164 25.4998 28.7734 25.9295 28.0657 26.2226C27.3579 26.5158 26.5994 26.6667 25.8333 26.6667C25.0673 26.6667 24.3087 26.5158 23.601 26.2226C22.8933 25.9295 22.2502 25.4998 21.7085 24.9581C21.1669 24.4164 20.7372 23.7734 20.444 23.0657C20.1509 22.3579 20 21.5994 20 20.8333Z" stroke="#C6C6C6" stroke-width="2" stroke-linecap="round" stroke-linejoin="round"/>
<path d="M8.33333 32.5C8.33333 30.9529 8.94791 29.4692 10.0419 28.3752C11.1358 27.2812 12.6196 26.6667 14.1667 26.6667H20V32.5C20 34.0471 19.3854 35.5308 18.2915 36.6248C17.1975 37.7187 15.7138 38.3333 14.1667 38.3333C12.6196 38.3333 11.1358 37.7187 10.0419 36.6248C8.94791 35.5308 8.33333 34.0471 8.33333 32.5Z" stroke="#C6C6C6" stroke-width="2" stroke-linecap="round" stroke-linejoin="round"/>
<path d="M8.33333 20.8333C8.33333 19.2862 8.94791 17.8025 10.0419 16.7085C11.1358 15.6146 12.6196 15 14.1667 15H20V26.6667H14.1667C12.6196 26.6667 11.1358 26.0521 10.0419 24.9581C8.94791 23.8642 8.33333 22.3804 8.33333 20.8333Z" stroke="#C6C6C6" stroke-width="2" stroke-linecap="round" stroke-linejoin="round"/>
</svg>
