<svg width="40" height="40" viewBox="0 0 40 40" fill="none" xmlns="http://www.w3.org/2000/svg">
<path d="M8.33333 9.16659C8.33333 7.61949 8.94791 6.13576 10.0419 5.0418C11.1358 3.94783 12.6196 3.33325 14.1667 3.33325H20V14.9999H14.1667C12.6196 14.9999 11.1358 14.3853 10.0419 13.2914C8.94791 12.1974 8.33333 10.7137 8.33333 9.16659Z" stroke="#393939" stroke-width="2" stroke-linecap="round" stroke-linejoin="round"/>
<path d="M20 3.33325H25.8333C26.5994 3.33325 27.3579 3.48414 28.0657 3.77729C28.7734 4.07044 29.4164 4.50012 29.9581 5.0418C30.4998 5.58347 30.9295 6.22653 31.2226 6.93427C31.5158 7.642 31.6667 8.40054 31.6667 9.16659C31.6667 9.93263 31.5158 10.6912 31.2226 11.3989C30.9295 12.1066 30.4998 12.7497 29.9581 13.2914C29.4164 13.8331 28.7734 14.2627 28.0657 14.5559C27.3579 14.849 26.5994 14.9999 25.8333 14.9999H20V3.33325Z" stroke="#393939" stroke-width="2" stroke-linecap="round" stroke-linejoin="round"/>
<path d="M20 20.8333C20 20.0673 20.1509 19.3087 20.444 18.601C20.7372 17.8933 21.1669 17.2502 21.7085 16.7085C22.2502 16.1669 22.8933 15.7372 23.601 15.444C24.3087 15.1509 25.0673 15 25.8333 15C26.5994 15 27.3579 15.1509 28.0657 15.444C28.7734 15.7372 29.4164 16.1669 29.9581 16.7085C30.4998 17.2502 30.9295 17.8933 31.2226 18.601C31.5158 19.3087 31.6667 20.0673 31.6667 20.8333C31.6667 21.5994 31.5158 22.3579 31.2226 23.0657C30.9295 23.7734 30.4998 24.4164 29.9581 24.9581C29.4164 25.4998 28.7734 25.9295 28.0657 26.2226C27.3579 26.5158 26.5994 26.6667 25.8333 26.6667C25.0673 26.6667 24.3087 26.5158 23.601 26.2226C22.8933 25.9295 22.2502 25.4998 21.7085 24.9581C21.1669 24.4164 20.7372 23.7734 20.444 23.0657C20.1509 22.3579 20 21.5994 20 20.8333Z" stroke="#393939" stroke-width="2" stroke-linecap="round" stroke-linejoin="round"/>
<path d="M8.33333 32.5001C8.33333 30.953 8.94791 29.4693 10.0419 28.3753C11.1358 27.2813 12.6196 26.6667 14.1667 26.6667H20V32.5001C20 34.0472 19.3854 35.5309 18.2915 36.6249C17.1975 37.7188 15.7138 38.3334 14.1667 38.3334C12.6196 38.3334 11.1358 37.7188 10.0419 36.6249C8.94791 35.5309 8.33333 34.0472 8.33333 32.5001Z" stroke="#393939" stroke-width="2" stroke-linecap="round" stroke-linejoin="round"/>
<path d="M8.33333 20.8333C8.33333 19.2862 8.94791 17.8025 10.0419 16.7085C11.1358 15.6146 12.6196 15 14.1667 15H20V26.6667H14.1667C12.6196 26.6667 11.1358 26.0521 10.0419 24.9581C8.94791 23.8642 8.33333 22.3804 8.33333 20.8333Z" stroke="#393939" stroke-width="2" stroke-linecap="round" stroke-linejoin="round"/>
</svg>
