<svg width="32" height="32" viewBox="0 0 32 32" fill="none" xmlns="http://www.w3.org/2000/svg">
<path d="M20 29.3333V24C20.1855 22.3297 19.7066 20.6535 18.6667 19.3333C22.6667 19.3333 26.6667 16.6666 26.6667 12C26.7733 10.3333 26.3067 8.69329 25.3333 7.33329C25.7067 5.79996 25.7067 4.19996 25.3333 2.66663C25.3333 2.66663 24 2.66663 21.3333 4.66663C17.8133 3.99996 14.1867 3.99996 10.6667 4.66663C8.00001 2.66663 6.66668 2.66663 6.66668 2.66663C6.26668 4.19996 6.26668 5.79996 6.66668 7.33329C5.69584 8.6878 5.22464 10.337 5.33334 12C5.33334 16.6666 9.33334 19.3333 13.3333 19.3333C12.8133 19.9866 12.4267 20.7333 12.2 21.5333C11.9733 22.3333 11.9067 23.1733 12 24V29.3333" stroke="#393939" stroke-width="2" stroke-linecap="round" stroke-linejoin="round"/>
<path d="M12 24C5.98669 26.6667 5.33335 21.3334 2.66669 21.3334" stroke="#393939" stroke-width="2" stroke-linecap="round" stroke-linejoin="round"/>
</svg>
