<svg width="32" height="32" viewBox="0 0 32 32" fill="none" xmlns="http://www.w3.org/2000/svg">
<path d="M20 29.3333V24C20.1855 22.3297 19.7066 20.6535 18.6667 19.3333C22.6667 19.3333 26.6667 16.6667 26.6667 12C26.7733 10.3333 26.3067 8.69332 25.3333 7.33332C25.7067 5.79999 25.7067 4.19999 25.3333 2.66666C25.3333 2.66666 24 2.66666 21.3333 4.66666C17.8133 3.99999 14.1867 3.99999 10.6667 4.66666C8.00001 2.66666 6.66668 2.66666 6.66668 2.66666C6.26668 4.19999 6.26668 5.79999 6.66668 7.33332C5.69584 8.68783 5.22464 10.337 5.33334 12C5.33334 16.6667 9.33334 19.3333 13.3333 19.3333C12.8133 19.9867 12.4267 20.7333 12.2 21.5333C11.9733 22.3333 11.9067 23.1733 12 24V29.3333" stroke="#C6C6C6" stroke-width="2" stroke-linecap="round" stroke-linejoin="round"/>
<path d="M12 24C5.98669 26.6667 5.33335 21.3333 2.66669 21.3333" stroke="#C6C6C6" stroke-width="2" stroke-linecap="round" stroke-linejoin="round"/>
</svg>
