<svg width="40" height="40" viewBox="0 0 40 40" fill="none" xmlns="http://www.w3.org/2000/svg">
<path d="M23.3333 31.6667C23.3333 29.0145 22.2798 26.471 20.4044 24.5956C18.529 22.7202 15.9855 21.6667 13.3333 21.6667C10.6812 21.6667 8.13763 22.7202 6.26226 24.5956C4.3869 26.471 3.33333 29.0145 3.33333 31.6667" stroke="#C6C6C6" stroke-width="2" stroke-linecap="round" stroke-linejoin="round"/>
<path d="M13.3333 21.6667C17.0152 21.6667 20 18.6819 20 15C20 11.3181 17.0152 8.33333 13.3333 8.33333C9.65144 8.33333 6.66667 11.3181 6.66667 15C6.66667 18.6819 9.65144 21.6667 13.3333 21.6667Z" stroke="#C6C6C6" stroke-width="2" stroke-linecap="round" stroke-linejoin="round"/>
<path d="M36.6667 31.6667C36.6667 29.0145 35.6131 26.471 33.7377 24.5956C31.8624 22.7202 29.3188 21.6667 26.6667 21.6667C28.4348 21.6667 30.1305 20.9643 31.3807 19.714C32.631 18.4638 33.3333 16.7681 33.3333 15C33.3333 13.2319 32.631 11.5362 31.3807 10.2859C30.1305 9.03571 28.4348 8.33333 26.6667 8.33333" stroke="#C6C6C6" stroke-width="2" stroke-linecap="round" stroke-linejoin="round"/>
</svg>
