<svg width="40" height="40" viewBox="0 0 40 40" fill="none" xmlns="http://www.w3.org/2000/svg">
<path d="M23.3333 31.6667C23.3333 29.0146 22.2798 26.471 20.4044 24.5957C18.529 22.7203 15.9855 21.6667 13.3333 21.6667C10.6812 21.6667 8.13763 22.7203 6.26226 24.5957C4.3869 26.471 3.33333 29.0146 3.33333 31.6667" stroke="#393939" stroke-width="2" stroke-linecap="round" stroke-linejoin="round"/>
<path d="M13.3333 21.6666C17.0152 21.6666 20 18.6818 20 14.9999C20 11.318 17.0152 8.33325 13.3333 8.33325C9.65144 8.33325 6.66667 11.318 6.66667 14.9999C6.66667 18.6818 9.65144 21.6666 13.3333 21.6666Z" stroke="#393939" stroke-width="2" stroke-linecap="round" stroke-linejoin="round"/>
<path d="M36.6667 31.6666C36.6667 29.0144 35.6131 26.4709 33.7377 24.5955C31.8624 22.7202 29.3188 21.6666 26.6667 21.6666C28.4348 21.6666 30.1305 20.9642 31.3807 19.714C32.631 18.4637 33.3333 16.768 33.3333 14.9999C33.3333 13.2318 32.631 11.5361 31.3807 10.2859C30.1305 9.03563 28.4348 8.33325 26.6667 8.33325" stroke="#393939" stroke-width="2" stroke-linecap="round" stroke-linejoin="round"/>
</svg>
